<!-- Generator: Adobe Illustrator 21.1.0, SVG Export Plug-In  -->
<svg version="1.1"
	 xmlns="http://www.w3.org/2000/svg" xmlns:xlink="http://www.w3.org/1999/xlink" xmlns:a="http://ns.adobe.com/AdobeSVGViewerExtensions/3.0/"
	 x="0px" y="0px" width="1692.781px" height="153.198px" viewBox="0 0 1692.781 153.198"
	 style="enable-background:new 0 0 1692.781 153.198;" xml:space="preserve">
<style type="text/css">
	.st0{fill:#EF4C36;}
	.st1{fill:#F8F3DD;}
</style>
<defs>
</defs>
<g>
	<g>
		<path class="st0" d="M107.398,123.998c0,2.4,2.6,4.4,5,4.4h15.4v20.4H44v-20.4h15.4c2.4,0,5-2,5-4.4V31.6h-13
			c-17.8,0.2-18.8,18.4-19.8,34.2H12V10.4h148.397v55.399h-19.2c-1-16.4-2-34-21-34.2h-12.8V123.998z"/>
		<path class="st0" d="M164.801,128.398c3.6,0,6.2-4.4,7.2-7L216,11h38.199l44.399,108.398c3.2,7.8,6.4,9.6,19.4,9.6v19.8H238v-20.4
			h14.6c2.6,0,3.8-1.4,3.8-4c0-4.2-4.2-14-7.2-20.4H201.8c-0.6,1.6-7.4,16.8-7.4,20.4c0,2,3,4,5,4h15v20.4h-61.599v-20.4H164.801z
			 M209.8,83.999h32l-13.6-36l-2-10l-2.4,10L209.8,83.999z"/>
		<path class="st0" d="M414.597,148.798v-19.6h9.6c2.6-0.2,3.2-2.2,3.2-4.2c0-5.8-11.8-19-27.6-38.999c-2.8,2.4-11.6,8.8-13.8,11v27
			c0,2.6,2.4,5.2,6.8,5.2h12.8v19.6h-82.599v-19.4h12.8c3.8,0,7-0.8,7-6.4V38.399c0-4.6-2.6-7.2-7.2-7.6h-13.6V11h83.599v19.8h-12.8
			c-3,0-6.8,2.8-6.8,8v31.4c33.6-26,40.799-29.6,40.799-34.8c0-2.6-1.6-4.2-4.2-4.6h-8.4V11h76.399v20.2h-13
			c-11,0-30.399,18.2-46.799,30.799c0,0.4,21.4,26.8,46.399,59.799c4.8,6.2,11.4,6.4,19.2,6.4v20.6H414.597z"/>
		<path class="st0" d="M517.795,128.398c2.4,0,4.8-2,4.8-4.4V36.2c0-3-2.8-5.4-5.8-5.4h-14.6V11h144.598v54.799h-20
			c-0.4-3-1.2-13.4-1.6-15.8c-0.8-9.2-5.8-18.8-16.2-18.8h-43.199v35.799h13.4c5.6,0,9.6-5.8,9.6-10.8v-10h19.8v62.399h-19.8v-9.8
			c0-8.8-4-11-9.2-11h-13.8v40.599h44.799c12.6,0,17.8-13.6,17.8-24.199v-15.2h20.6v59.799H502.195v-20.4H517.795z"/>
		<path class="st0" d="M712.191,128.398c3.601,0,6.2-4.4,7.2-7L763.39,11h38.2l44.399,108.398c3.199,7.8,6.399,9.6,19.399,9.6v19.8
			H785.39v-20.4h14.6c2.601,0,3.8-1.4,3.8-4c0-4.2-4.199-14-7.199-20.4h-47.399c-0.6,1.6-7.4,16.8-7.4,20.4c0,2,3,4,5,4h15v20.4
			h-61.599v-20.4H712.191z M757.191,83.999h31.999l-13.6-36l-2-10l-2.399,10L757.191,83.999z"/>
		<path class="st0" d="M943.59,6.4c13.8,0,28.6,3.6,40.199,11.6l4.6-9.6h19.2v54.799h-20.8c-5-21.2-13.2-34.799-37.399-34.799
			c-29.6,0-34.6,27.799-34.6,52.399c0,25.2,6.6,48.599,35.6,48.599c22.999,0,36.199-12,37.999-36.599h21.6
			c0,39.399-32.6,60.199-67.799,60.199c-42.6,0-74.599-29-74.599-72.599C867.591,36.399,899.991,6.4,943.59,6.4z"/>
		<path class="st0" d="M1116.586,123.998c0,2.4,2.6,4.4,5,4.4h15.399v20.4h-83.799v-20.4h15.4c2.399,0,5-2,5-4.4V31.6h-13
			c-17.8,0.2-18.8,18.4-19.8,34.2h-19.6V10.4h148.397v55.399h-19.199c-1-16.4-2-34-21-34.2h-12.8V123.998z"/>
		<path class="st0" d="M1244.986,123.998c0,2.4,2.601,4.4,5,4.4h15.4v20.4h-83.999v-20.4h15.6c2.4,0,4.8-2,4.8-4.4V35.8
			c0-2.4-2.399-4.4-4.8-4.4h-15.6V11h83.999v20.399h-15.4c-2.399,0-5,2-5,4.4V123.998z"/>
		<path class="st0" d="M1359.185,6.8c43.6,0,77.599,28.2,77.599,73.599s-32.6,72.799-77.799,72.799
			c-44.199,0-78.599-27.799-78.599-72.799C1280.386,33.8,1314.385,6.8,1359.185,6.8z M1358.185,132.198
			c28.6,0,30.8-28.2,30.8-51.199c0-22.8-0.601-53-30.6-53c-28.6,0-30.8,30.2-30.8,52.399
			C1327.585,101.798,1330.385,132.198,1358.185,132.198z"/>
		<path class="st0" d="M1471.983,123.998V37.399c0-2.4-0.6-6.6-6.8-6.6h-13.6V11h60.199l61.399,89.999c0.399,0.6,2.6,7.4,4.6,12.4
			l-2-13.2V38.399c0-7-3.2-7.6-8.6-7.6h-10.4V11h61.399v19.8h-13.6c-3.4,0-6.601,0.6-6.601,7v110.999h-39.999l-60.799-88.799
			l-5.2-11.6l2.6,11.2v64.399c0,2.4,2.601,4.4,5,4.4h15.4v20.4h-63.399v-20.4h15.6
			C1469.583,128.398,1471.983,126.398,1471.983,123.998z"/>
		<path class="st0" d="M1682.781,27.6c0,10.8-10.6,42.799-10.6,77.199h-20.199c0-28.199-11.601-72.599-11.601-77.599
			c0-12.4,8.2-22.2,20.8-22.2C1675.781,5,1682.781,13.6,1682.781,27.6z M1661.181,149.798c-11.199,0-18.999-9.2-18.999-20
			c0-10.6,8.6-18.8,18.8-18.8c10.8,0,20.199,8,20.199,19.2C1681.181,140.998,1671.782,149.798,1661.181,149.798z"/>
	</g>
</g>
<g>
	<path class="st1" d="M95.398,118.998c0,2.4,2.6,4.4,5,4.4h15.4v20.4H32v-20.4h15.4c2.4,0,5-2,5-4.4V26.6h-13
		c-17.8,0.2-18.8,18.4-19.8,34.2H0V5.4h148.397v55.399h-19.2c-1-16.4-2-34-21-34.2h-12.8V118.998z"/>
	<path class="st1" d="M154.801,123.398c3.6,0,6.2-4.4,7.2-7L206,6h38.199l44.399,108.398c3.2,7.8,6.4,9.6,19.4,9.6v19.8H228v-20.4
		h14.6c2.6,0,3.8-1.4,3.8-4c0-4.2-4.2-14-7.2-20.4H191.8c-0.6,1.6-7.4,16.8-7.4,20.4c0,2,3,4,5,4h15v20.4h-61.599v-20.4H154.801z
		 M199.8,78.999h32l-13.6-36l-2-10l-2.4,10L199.8,78.999z"/>
	<path class="st1" d="M406.597,143.798v-19.6h9.6c2.6-0.2,3.2-2.2,3.2-4.2c0-5.8-11.8-19-27.6-38.999c-2.8,2.4-11.6,8.8-13.8,11v27
		c0,2.6,2.4,5.2,6.8,5.2h12.8v19.6h-82.599v-19.4h12.8c3.8,0,7-0.8,7-6.4V33.399c0-4.6-2.6-7.2-7.2-7.6h-13.6V6h83.599v19.8h-12.8
		c-3,0-6.8,2.8-6.8,8v31.4c33.6-26,40.799-29.6,40.799-34.8c0-2.6-1.6-4.2-4.2-4.6h-8.4V6h76.399v20.2h-13
		c-11,0-30.399,18.2-46.799,30.799c0,0.4,21.4,26.8,46.399,59.799c4.8,6.2,11.4,6.4,19.2,6.4v20.6H406.597z"/>
	<path class="st1" d="M511.795,123.398c2.4,0,4.8-2,4.8-4.4V31.2c0-3-2.8-5.4-5.8-5.4h-14.6V6h144.598v54.799h-20
		c-0.4-3-1.2-13.4-1.6-15.8c-0.8-9.2-5.8-18.8-16.2-18.8h-43.199v35.799h13.4c5.6,0,9.6-5.8,9.6-10.8v-10h19.8v62.399h-19.8v-9.8
		c0-8.8-4-11-9.2-11h-13.8v40.599h44.799c12.6,0,17.8-13.6,17.8-24.199v-15.2h20.6v59.799H496.195v-20.4H511.795z"/>
	<path class="st1" d="M710.191,123.398c3.601,0,6.2-4.4,7.2-7L761.39,6h38.2l44.399,108.398c3.199,7.8,6.399,9.6,19.399,9.6v19.8
		H783.39v-20.4h14.6c2.601,0,3.8-1.4,3.8-4c0-4.2-4.199-14-7.199-20.4h-47.399c-0.6,1.6-7.4,16.8-7.4,20.4c0,2,3,4,5,4h15v20.4
		h-61.599v-20.4H710.191z M755.191,78.999h31.999l-13.6-36l-2-10l-2.399,10L755.191,78.999z"/>
	<path class="st1" d="M943.59,1.4c13.8,0,28.6,3.6,40.199,11.6l4.6-9.6h19.2v54.799h-20.8c-5-21.2-13.2-34.799-37.399-34.799
		c-29.6,0-34.6,27.799-34.6,52.399c0,25.2,6.6,48.599,35.6,48.599c22.999,0,36.199-12,37.999-36.599h21.6
		c0,39.399-32.6,60.199-67.799,60.199c-42.6,0-74.599-29-74.599-72.599C867.591,31.399,899.991,1.4,943.59,1.4z"/>
	<path class="st1" d="M1118.586,118.998c0,2.4,2.6,4.4,5,4.4h15.399v20.4h-83.799v-20.4h15.4c2.399,0,5-2,5-4.4V26.6h-13
		c-17.8,0.2-18.8,18.4-19.8,34.2h-19.6V5.4h148.397v55.399h-19.199c-1-16.4-2-34-21-34.2h-12.8V118.998z"/>
	<path class="st1" d="M1248.986,118.998c0,2.4,2.601,4.4,5,4.4h15.4v20.4h-83.999v-20.4h15.6c2.4,0,4.8-2,4.8-4.4V30.8
		c0-2.4-2.399-4.4-4.8-4.4h-15.6V6h83.999v20.399h-15.4c-2.399,0-5,2-5,4.4V118.998z"/>
	<path class="st1" d="M1365.185,1.8c43.6,0,77.599,28.2,77.599,73.599s-32.6,72.799-77.799,72.799
		c-44.199,0-78.599-27.799-78.599-72.799C1286.386,28.8,1320.385,1.8,1365.185,1.8z M1364.185,127.198c28.6,0,30.8-28.2,30.8-51.199
		c0-22.8-0.601-53-30.6-53c-28.6,0-30.8,30.2-30.8,52.399C1333.585,96.798,1336.385,127.198,1364.185,127.198z"/>
	<path class="st1" d="M1479.983,118.998V32.399c0-2.4-0.6-6.6-6.8-6.6h-13.6V6h60.199l61.399,89.999c0.399,0.6,2.6,7.4,4.6,12.4
		l-2-13.2V33.399c0-7-3.2-7.6-8.6-7.6h-10.4V6h61.399v19.8h-13.6c-3.4,0-6.601,0.6-6.601,7v110.999h-39.999l-60.799-88.799
		l-5.2-11.6l2.6,11.2v64.399c0,2.4,2.601,4.4,5,4.4h15.4v20.4h-63.399v-20.4h15.6
		C1477.583,123.398,1479.983,121.398,1479.983,118.998z"/>
	<path class="st1" d="M1692.781,22.6c0,10.8-10.6,42.799-10.6,77.199h-20.199c0-28.199-11.601-72.599-11.601-77.599
		c0-12.4,8.2-22.2,20.8-22.2C1685.781,0,1692.781,8.6,1692.781,22.6z M1671.181,144.798c-11.199,0-18.999-9.2-18.999-20
		c0-10.6,8.6-18.8,18.8-18.8c10.8,0,20.199,8,20.199,19.2C1691.181,135.998,1681.782,144.798,1671.181,144.798z"/>
</g>
</svg>