<!-- Generator: Adobe Illustrator 21.1.0, SVG Export Plug-In  -->
<svg version="1.1"
	 xmlns="http://www.w3.org/2000/svg" xmlns:xlink="http://www.w3.org/1999/xlink" xmlns:a="http://ns.adobe.com/AdobeSVGViewerExtensions/3.0/"
	 x="0px" y="0px" width="275.811px" height="62.987px" viewBox="0 0 275.811 62.987"
	 style="enable-background:new 0 0 275.811 62.987;" xml:space="preserve">
<style type="text/css">
	.st0{fill:#FFFFFF;}
</style>
<defs>
</defs>
<g>
	<g>
		<path class="st0" d="M43.364,6.444V0H0v62.644h20.786L8.598,58.471V23.577l15.784-7.778v46.845h18.983v-16.55l-4.939-1.108V28.249
			l4.939-1.473v-1.879l-4.939,1.472V8.878L43.364,6.444z M36.506,44.559l-5.95-1.332V30.593l5.95-1.774V44.559z M36.506,26.94
			l-5.95,1.773V12.756l5.95-2.934V26.94z"/>
		<path class="st0" d="M65.242,39.34h-0.427l-9.722-9.947v6.462c0,2.393,0.203,2.88,2.213,2.88v0.45
			c-0.819,0-1.655-0.036-2.473-0.036c-0.817,0-1.654,0.018-2.471,0.036v-0.45c1.133,0,1.989,0,1.989-2.201v-6.967
			c0-1.491-0.687-2.026-2.289-2.026v-0.452c0.579,0.018,1.137,0.035,1.713,0.035c0.503,0,1.022-0.035,1.522-0.035
			c0.764,1.058,2.493,2.634,4.612,4.817c1.58,1.629,3.327,3.345,4.591,4.628v-6.897c0-1.594-0.39-2.08-2.25-2.096v-0.452
			c0.857,0.018,1.729,0.035,2.585,0.035c0.724,0,1.431-0.035,2.155-0.035v0.452c-1.132,0-1.747,0.085-1.747,1.785V39.34z"/>
		<path class="st0" d="M75.911,38.506c-0.518,0.452-1.096,0.937-1.838,0.937c-0.764,0-1.117-0.658-1.154-1.282
			c-0.874,0.744-1.709,1.282-2.863,1.282c-1.19,0-2.007-0.763-2.007-1.68c0.073-1.388,0.837-1.647,4.85-2.929v-1.142
			c0-0.971-0.612-1.492-1.802-1.492c-0.819,0-1.375,0.434-1.413,1.213c0,0.488-0.595,0.727-1.041,0.727
			c-0.278,0-0.333-0.224-0.333-0.346c0-0.919,0.835-1.351,2.137-1.975c0.65-0.312,0.967-0.556,1.674-0.556
			c0.834,0,2.265,0.502,2.265,1.457v4.8c0,0.71,0.262,0.985,0.67,0.985c0.241,0,0.519-0.103,0.687-0.292L75.911,38.506z
			 M72.9,35.337c-0.948,0.346-3.363,0.745-3.363,2.046c0,0.674,0.595,1.246,1.319,1.246c0.874,0,1.432-0.502,2.044-1.005V35.337z"/>
		<path class="st0" d="M79.629,37.054c0,1.142,0.669,1.452,1.17,1.452c0.503,0,0.875-0.154,1.303-0.501l0.276,0.26
			c-0.65,0.625-1.467,1.178-2.471,1.178c-1.191,0-1.766-0.588-1.766-1.609V32.46h-1.227v-0.278c0.968-0.693,1.543-1.021,2.49-2.424
			h0.224v1.766h2.769v0.936h-2.769V37.054z"/>
		<path class="st0" d="M83.347,38.734h0.352c0.521,0,0.892,0,0.892-0.572v-4.697c0-0.762-0.279-0.866-0.966-1.213v-0.278
			c0.874-0.241,1.915-0.571,1.988-0.625c0.133-0.068,0.244-0.085,0.337-0.085c0.092,0,0.129,0.104,0.129,0.243v6.654
			c0,0.572,0.408,0.572,0.929,0.572h0.317v0.451c-0.633,0-1.283-0.037-1.953-0.037c-0.669,0-1.338,0.019-2.025,0.037V38.734z
			 M85.335,28.597c-0.484,0-0.91-0.417-0.91-0.867c0-0.434,0.444-0.832,0.91-0.832c0.483,0,0.912,0.364,0.912,0.832
			C86.247,28.198,85.836,28.597,85.335,28.597"/>
		<path class="st0" d="M92.57,31.264c2.585,0,4.517,1.595,4.517,4.057c0,2.234-1.896,4.122-4.272,4.122
			c-2.474,0-4.5-1.593-4.5-4.053C88.314,33.153,90.082,31.264,92.57,31.264 M92.796,38.992c1.856,0,2.583-2.009,2.583-3.499
			c0-1.421-0.819-3.78-2.788-3.78c-1.841,0-2.565,2.013-2.565,3.502C90.026,36.637,90.843,38.992,92.796,38.992"/>
		<path class="st0" d="M99.435,33.568c0-0.639-0.202-0.812-1.077-1.142v-0.33c0.799-0.241,1.561-0.466,2.452-0.831
			c0.056,0,0.112,0.036,0.112,0.172v1.128c1.058-0.71,1.971-1.3,3.214-1.3c1.581,0,2.139,1.074,2.139,2.428v4.469
			c0,0.572,0.411,0.572,0.93,0.572h0.335v0.451c-0.652,0-1.301-0.037-1.971-0.037c-0.669,0-1.338,0.019-2.006,0.037v-0.451h0.332
			c0.521,0,0.895,0,0.895-0.572v-4.487c0-0.986-0.653-1.474-1.71-1.474c-0.596,0-1.543,0.45-2.158,0.832v5.129
			c0,0.572,0.409,0.572,0.929,0.572h0.335v0.451c-0.649,0-1.301-0.037-1.97-0.037c-0.669,0-1.338,0.019-2.007,0.037v-0.451h0.335
			c0.521,0,0.89,0,0.89-0.572V33.568z"/>
		<path class="st0" d="M116.684,38.506c-0.522,0.452-1.095,0.937-1.841,0.937c-0.76,0-1.114-0.658-1.151-1.282
			c-0.874,0.744-1.709,1.282-2.863,1.282c-1.19,0-2.008-0.763-2.008-1.68c0.075-1.388,0.838-1.647,4.854-2.929v-1.142
			c0-0.971-0.614-1.492-1.804-1.492c-0.82,0-1.376,0.434-1.415,1.213c0,0.488-0.595,0.727-1.04,0.727
			c-0.279,0-0.335-0.224-0.335-0.346c0-0.919,0.838-1.351,2.137-1.975c0.652-0.312,0.966-0.556,1.674-0.556
			c0.835,0,2.267,0.502,2.267,1.457v4.8c0,0.71,0.26,0.985,0.67,0.985c0.242,0,0.519-0.103,0.688-0.292L116.684,38.506z
			 M113.676,35.337c-0.949,0.346-3.365,0.745-3.365,2.046c0,0.674,0.595,1.246,1.319,1.246c0.875,0,1.433-0.502,2.046-1.005V35.337z
			"/>
		<path class="st0" d="M117.931,38.734h0.353c0.521,0,0.89,0,0.89-0.572v-9.653c0-1.126-0.278-1.159-0.984-1.351v-0.279
			c0.743-0.223,1.525-0.536,1.915-0.742c0.205-0.106,0.353-0.192,0.411-0.192c0.108,0,0.147,0.104,0.147,0.242v11.974
			c0,0.572,0.408,0.572,0.93,0.572h0.315v0.451c-0.631,0-1.284-0.037-1.951-0.037c-0.669,0-1.338,0.018-2.026,0.037V38.734z"/>
		<path class="st0" d="M138.408,35.736c0.261,0.676,0.765,2.149,1.06,2.529c0.28,0.346,0.837,0.469,1.432,0.469v0.451
			c-0.707,0-1.432-0.037-2.139-0.037c-0.912,0-1.804,0.019-2.714,0.037v-0.451h0.335c0.464,0,1.023-0.088,1.023-0.572
			c0-0.19-0.148-0.675-0.28-1.006l-0.931-2.51h-4.367l-0.408,1.211c-0.242,0.729-0.503,1.527-0.503,2.063
			c0,0.816,0.614,0.78,1.263,0.816h0.43v0.451c-0.726,0-1.468-0.037-2.195-0.037c-0.742,0-1.504,0.019-2.247,0.037v-0.451
			c1.133-0.123,1.338-0.259,1.803-1.229c0.296-0.624,0.519-1.301,0.761-1.942l2.379-6.185c0.147-0.399,0.389-1.041,0.389-1.56
			c0-0.174,0-0.311-0.035-0.452c0.388-0.172,0.817-0.364,1.077-0.762h0.317L138.408,35.736z M132.088,33.932h3.83l-1.988-5.093
			h-0.037L132.088,33.932z"/>
		<path class="st0" d="M141.829,38.734h0.352c0.519,0,0.892,0,0.892-0.572v-9.653c0-1.126-0.278-1.159-0.984-1.351v-0.279
			c0.743-0.223,1.525-0.536,1.914-0.742c0.205-0.106,0.353-0.192,0.409-0.192c0.111,0,0.15,0.104,0.15,0.242v11.974
			c0,0.572,0.409,0.572,0.93,0.572h0.314v0.451c-0.631,0-1.282-0.037-1.949-0.037c-0.67,0-1.339,0.018-2.026,0.037V38.734z"/>
		<path class="st0" d="M146.996,38.734h0.352c0.523,0,0.894,0,0.894-0.572v-9.653c0-1.126-0.278-1.159-0.985-1.351v-0.279
			c0.742-0.223,1.525-0.536,1.915-0.742c0.205-0.106,0.353-0.192,0.408-0.192c0.112,0,0.148,0.104,0.148,0.242v11.974
			c0,0.572,0.408,0.572,0.93,0.572h0.316v0.451c-0.632,0-1.282-0.037-1.952-0.037c-0.669,0-1.339,0.018-2.026,0.037V38.734z"/>
		<path class="st0" d="M152.164,38.734h0.352c0.521,0,0.894,0,0.894-0.572v-4.697c0-0.762-0.28-0.866-0.968-1.213v-0.278
			c0.875-0.241,1.915-0.571,1.99-0.625c0.13-0.068,0.242-0.085,0.335-0.085c0.091,0,0.129,0.104,0.129,0.243v6.654
			c0,0.572,0.409,0.572,0.93,0.572h0.316v0.451c-0.633,0-1.284-0.037-1.952-0.037c-0.67,0-1.337,0.019-2.026,0.037V38.734z
			 M154.152,28.597c-0.484,0-0.91-0.417-0.91-0.867c0-0.434,0.446-0.832,0.91-0.832c0.483,0,0.912,0.364,0.912,0.832
			C155.064,28.198,154.656,28.597,154.152,28.597"/>
		<path class="st0" d="M165.38,38.506c-0.523,0.452-1.096,0.937-1.841,0.937c-0.762,0-1.117-0.658-1.151-1.282
			c-0.875,0.744-1.711,1.282-2.863,1.282c-1.192,0-2.009-0.763-2.009-1.68c0.075-1.388,0.837-1.647,4.852-2.929v-1.142
			c0-0.971-0.613-1.492-1.801-1.492c-0.82,0-1.376,0.434-1.413,1.213c0,0.488-0.595,0.727-1.042,0.727
			c-0.279,0-0.334-0.224-0.334-0.346c0-0.919,0.835-1.351,2.137-1.975c0.652-0.312,0.967-0.556,1.673-0.556
			c0.835,0,2.268,0.502,2.268,1.457v4.8c0,0.71,0.262,0.985,0.67,0.985c0.241,0,0.518-0.103,0.688-0.292L165.38,38.506z
			 M162.368,35.337c-0.948,0.346-3.364,0.745-3.364,2.046c0,0.674,0.596,1.246,1.321,1.246c0.872,0,1.43-0.502,2.043-1.005V35.337z"
			/>
		<path class="st0" d="M167.758,33.568c0-0.639-0.205-0.812-1.077-1.142v-0.33c0.798-0.241,1.561-0.466,2.452-0.831
			c0.056,0,0.114,0.036,0.114,0.172v1.128c1.058-0.71,1.969-1.3,3.216-1.3c1.58,0,2.139,1.074,2.139,2.428v4.469
			c0,0.572,0.408,0.572,0.926,0.572h0.335v0.451c-0.649,0-1.301-0.037-1.97-0.037c-0.67,0-1.337,0.019-2.008,0.037v-0.451h0.335
			c0.522,0,0.893,0,0.893-0.572v-4.487c0-0.986-0.65-1.474-1.711-1.474c-0.595,0-1.543,0.45-2.154,0.832v5.129
			c0,0.572,0.408,0.572,0.93,0.572h0.331v0.451c-0.65,0-1.299-0.037-1.97-0.037c-0.667,0-1.336,0.019-2.008,0.037v-0.451h0.336
			c0.519,0,0.892,0,0.892-0.572V33.568z"/>
		<path class="st0" d="M184.155,37.64c-0.911,0.99-2.158,1.804-3.624,1.804c-1.935,0-3.702-1.75-3.702-3.588
			c0-2.51,1.935-4.591,4.612-4.591c0.948,0,2.508,0.278,2.508,1.195c0,0.399-0.26,0.764-0.706,0.764
			c-0.781,0-0.742-1.405-2.489-1.405c-1.603,0-2.438,1.661-2.438,2.981c0,1.783,1.227,3.362,3.254,3.362
			c0.947,0,1.561-0.312,2.269-0.814L184.155,37.64z"/>
		<path class="st0" d="M186.737,34.402c-0.036,0.155-0.036,0.417,0,1.003c0.112,1.65,1.247,2.999,2.732,2.999
			c1.024,0,1.825-0.519,2.511-1.16l0.26,0.243c-0.856,1.055-1.915,1.957-3.437,1.957c-2.957,0-3.553-2.669-3.553-3.778
			c0-3.395,2.457-4.401,3.758-4.401c1.506,0,3.121,0.884,3.141,2.721c0,0.104,0,0.209-0.02,0.311l-0.166,0.105H186.737z
			 M190.028,33.847c0.466,0,0.519-0.225,0.519-0.434c0-0.883-0.573-1.593-1.617-1.593c-1.133,0-1.914,0.779-2.136,2.027H190.028z"/>
		<path class="st0" d="M201.107,37.054c0,1.142,0.667,1.452,1.17,1.452c0.503,0,0.875-0.154,1.3-0.501l0.28,0.26
			c-0.651,0.625-1.467,1.178-2.472,1.178c-1.187,0-1.766-0.588-1.766-1.609V32.46h-1.227v-0.278
			c0.966-0.693,1.541-1.021,2.492-2.424h0.224v1.766h2.768v0.936h-2.768V37.054z"/>
		<path class="st0" d="M208.893,31.264c2.584,0,4.514,1.595,4.514,4.057c0,2.234-1.893,4.122-4.272,4.122
			c-2.473,0-4.5-1.593-4.5-4.053C204.635,33.153,206.402,31.264,208.893,31.264 M209.116,38.992c1.859,0,2.584-2.009,2.584-3.499
			c0-1.421-0.819-3.78-2.788-3.78c-1.841,0-2.565,2.013-2.565,3.502C206.347,36.637,207.165,38.992,209.116,38.992"/>
		<path class="st0" d="M56.745,53.359h3.46c2.124,0,2.124-1.541,2.203-2.102h0.524c-0.053,0.537-0.105,1.856-0.105,2.737
			c0,0.782,0.132,1.932,0.105,2.711h-0.524c0-2.344-0.84-2.344-2.858-2.344h-2.805v4.153c0,2.712,0.106,3.398,2.7,3.398h1.628
			c2.567-0.122,3.721-0.44,4.743-3.054l0.629,0.096c-0.419,1.222-0.813,2.469-1.076,3.739c-2.621,0-5.242-0.049-7.864-0.049
			c-1.939,0-3.879,0-5.819,0.049v-0.634c2.282,0,2.489-0.392,2.489-2.761V48.446c0-2.004-0.417-2.101-2.489-2.174v-0.636
			c1.756,0.051,3.539,0.051,5.296,0.051c2.517,0,5.005,0,7.549-0.051v3.643l-0.525,0.123c-0.394-2.299-1.571-2.981-4.191-2.981
			h-3.07V53.359z"/>
		<path class="st0" d="M69.773,52.504c0-1.1-1.573-1.15-2.097-1.15v-0.634c0.627,0.023,1.231,0.048,1.835,0.048
			c0.549,0,1.206-0.025,1.757-0.048l7.996,8.748v-6.403c0-1.686-0.71-1.711-2.098-1.711v-0.634c0.839,0.023,1.756,0.048,2.595,0.048
			c0.76,0,1.599-0.025,2.359-0.048v0.634c-1.231,0-1.808,0.05-1.808,1.271v10.362H79.68l-8.86-9.628v6.523
			c0,1.761,0.264,2.177,2.23,2.177v0.634c-0.865-0.023-1.861-0.049-2.751-0.049c-0.893,0-1.783,0.026-2.675,0.049v-0.634
			c2.149,0,2.149-1.004,2.149-2.761V52.504z"/>
		<path class="st0" d="M85.61,52.429c0-0.927-0.707-1.075-1.941-1.075V50.72c0.969,0.025,2.044,0.048,3.145,0.048
			c1.336,0,2.675-0.048,3.985-0.048c5.269,0,7.523,3.055,7.523,5.865c0,4.618-3.827,6.107-7.653,6.107
			c-1.155,0-2.464-0.048-3.489-0.048c-1.178,0-2.333,0.025-3.511,0.048v-0.634c1.234,0,1.941-0.147,1.941-1.075V52.429z
			 M87.863,60.373c0,1.417,0.84,1.539,2.098,1.539c2.516,0,5.792-0.758,5.792-5.035c0-3.006-1.494-5.374-5.005-5.374
			c-0.76,0-2.072,0.048-2.885,0.073V60.373z"/>
		<path class="st0" d="M121.051,53.359v-5.327c0-1.711-0.997-1.735-2.384-1.761v-0.636c1.387,0.026,2.62,0.051,3.879,0.051
			c1.126,0,2.28-0.051,3.46-0.051v0.636c-1.388,0.026-2.386,0.049-2.386,1.761v12.267c0,1.71,0.998,1.737,2.386,1.761v0.634
			c-1.18-0.023-2.359-0.049-3.538-0.049c-1.234,0-2.438,0.026-3.801,0.049v-0.634c1.387-0.023,2.384-0.05,2.384-1.761v-5.938h-10.59
			v5.938c0,1.71,0.997,1.737,2.385,1.761v0.634c-1.258,0-2.385-0.049-3.538-0.049c-1.259,0-2.492,0.026-3.801,0.049v-0.634
			c1.389-0.023,2.384-0.05,2.384-1.761V48.032c0-1.711-0.994-1.735-2.384-1.761v-0.636c1.233,0.026,2.438,0.051,3.617,0.051
			c1.205,0,2.413-0.026,3.722-0.051v0.636c-1.388,0.026-2.385,0.049-2.385,1.761v5.327H121.051z"/>
		<path class="st0" d="M134.607,50.424c4.245,0,7.024,2.69,7.024,6.208c0,3.031-2.699,6.355-7.207,6.355
			c-4.326,0-7.183-2.589-7.183-6.329C127.241,52.821,130.752,50.424,134.607,50.424 M134.713,62.206c3.302,0,4.35-2.69,4.35-5.33
			c0-3.421-2.072-5.668-4.849-5.668c-3.146,0-4.403,2.566-4.403,5.205C129.811,59.688,131.959,62.206,134.713,62.206"/>
		<path class="st0" d="M156.989,50.72c0.6,0.025,1.23,0.048,1.835,0.048c0.681,0,1.467-0.023,2.122-0.048v0.634
			c-1.259,0-1.807,0.22-1.807,0.783c0,0.39,0.025,0.734,0.051,1.369l0.26,6.351c0.081,2.078,0.448,2.201,2.1,2.201v0.634
			c-0.998-0.023-2.1-0.048-3.092-0.048c-0.997,0-2.125,0.025-3.121,0.048v-0.634c1.389,0,1.887-0.147,1.887-1.222
			c0-1.833-0.183-4.618-0.288-8.065h-0.053l-4.953,10.068h-0.369l-4.979-9.7h-0.054c-0.183,2.369-0.498,6.792-0.498,7.55
			c0,0.977,0.681,1.369,2.017,1.369l0.002,0.634c-0.76,0-1.549-0.048-2.307-0.048c-0.865,0-1.835,0.025-2.699,0.048v-0.634
			c1.756,0,1.964-0.563,2.044-1.638l0.499-6.355c0.078-0.952,0.104-1.417,0.104-2.027c0-0.61-0.42-0.685-1.94-0.685V50.72
			c0.76,0,1.546,0.048,2.307,0.048c0.524,0,1.152-0.048,1.65-0.048l4.744,8.991L156.989,50.72z"/>
		<path class="st0" d="M174.157,62.692c-1.886-0.023-3.747-0.048-5.636-0.048c-1.678,0-3.381,0.025-5.059,0.048v-0.634
			c1.233,0,1.94-0.147,1.94-1.075v-8.554c0-0.927-0.707-1.076-1.94-1.076V50.72c1.179,0.025,2.358,0.048,3.538,0.048
			c2.151,0,4.325-0.023,6.451-0.048l0.156,2.591h-0.549c-0.315-1.662-0.762-1.808-3.461-1.808h-1.94v4.618h2.176
			c1.309,0,1.887-0.023,1.887-1.71h0.681c-0.025,0.636-0.051,1.294-0.051,1.956c0,0.659,0.026,1.341,0.051,2.028h-0.681
			c0-1.347-0.34-1.492-1.887-1.492h-2.176v3.568c0,1.049,0.63,1.441,2.804,1.441c2.648,0,2.832-0.318,3.855-1.929h0.656
			L174.157,62.692z"/>
		<path class="st0" d="M179.189,52.43c0-0.927-0.707-1.075-1.94-1.075V50.72c0.997,0.025,2.019,0.048,3.015,0.048
			c1.051,0,2.152-0.023,3.122-0.048v0.634c-1.154,0-1.941,0.075-1.941,1.075v8.138c0,1.026,0.342,1.344,2.411,1.344
			c2.334,0,2.909-0.34,3.879-2.322h0.657l-0.786,3.103c-0.681-0.023-4.09-0.048-4.849-0.048c-1.836,0-3.67,0.025-5.507,0.048v-0.634
			c1.233,0,1.94-0.147,1.94-1.075V52.43z"/>
		<path class="st0" d="M200.372,62.692c-1.888-0.023-3.749-0.048-5.636-0.048c-1.679,0-3.382,0.025-5.059,0.048v-0.634
			c1.23,0,1.939-0.147,1.939-1.075v-8.554c0-0.927-0.708-1.076-1.939-1.076V50.72c1.178,0.025,2.356,0.048,3.536,0.048
			c2.151,0,4.326-0.023,6.449-0.048l0.158,2.591h-0.552c-0.314-1.662-0.759-1.808-3.459-1.808h-1.941v4.618h2.177
			c1.31,0,1.886-0.023,1.886-1.71h0.682c-0.026,0.636-0.053,1.294-0.053,1.956c0,0.659,0.026,1.341,0.053,2.028h-0.682
			c0-1.347-0.34-1.492-1.886-1.492h-2.177v3.568c0,1.049,0.627,1.441,2.805,1.441c2.647,0,2.832-0.318,3.852-1.929h0.655
			L200.372,62.692z"/>
		<path class="st0" d="M203.491,59.738h0.601c0.525,1.709,1.339,2.613,3.252,2.613c2.018,0,2.489-1.269,2.489-2.027
			c0-1.003-0.601-1.639-2.359-2.494c-2.884-1.393-3.643-2.322-3.643-4.228c0-1.66,1.546-3.176,3.827-3.176
			c0.994,0,2.228,0.22,3.094,0.245l0.236,2.394h-0.551c-0.29-0.977-0.865-2.005-2.596-2.005c-1.362,0-2.281,0.832-2.281,1.957
			c0,1.173,0.395,1.637,2.911,2.785c2.779,1.271,3.303,2.297,3.303,3.837c0,1.955-1.941,3.348-4.64,3.348
			c-1.207,0-2.255-0.22-3.252-0.66L203.491,59.738z"/>
		<path class="st0" d="M215.13,59.738h0.602c0.524,1.709,1.337,2.613,3.25,2.613c2.019,0,2.49-1.269,2.49-2.027
			c0-1.003-0.604-1.639-2.36-2.494c-2.882-1.393-3.643-2.322-3.643-4.228c0-1.66,1.546-3.176,3.827-3.176
			c0.996,0,2.227,0.22,3.092,0.245l0.236,2.394h-0.549c-0.288-0.977-0.865-2.005-2.596-2.005c-1.363,0-2.281,0.832-2.281,1.957
			c0,1.173,0.395,1.637,2.911,2.785c2.779,1.271,3.303,2.297,3.303,3.837c0,1.955-1.94,3.348-4.64,3.348
			c-1.207,0-2.255-0.22-3.25-0.66L215.13,59.738z"/>
		<path class="st0" d="M227.998,52.504c0-1.1-1.573-1.15-2.097-1.15v-0.634c0.628,0.023,1.231,0.048,1.836,0.048
			c0.55,0,1.205-0.025,1.756-0.048l7.997,8.748v-6.403c0-1.686-0.71-1.711-2.098-1.711v-0.634c0.839,0.023,1.756,0.048,2.595,0.048
			c0.76,0,1.598-0.025,2.36-0.048v0.634c-1.234,0-1.811,0.05-1.811,1.271v10.362h-0.627l-8.861-9.628v6.523
			c0,1.761,0.261,2.177,2.228,2.177v0.634c-0.865-0.023-1.862-0.049-2.751-0.049c-0.893,0-1.783,0.026-2.676,0.049v-0.634
			c2.149,0,2.149-1.004,2.149-2.761V52.504z"/>
		<path class="st0" d="M252.77,62.692c-1.887-0.023-3.749-0.048-5.636-0.048c-1.678,0-3.381,0.025-5.059,0.048v-0.634
			c1.231,0,1.941-0.147,1.941-1.075v-8.554c0-0.927-0.71-1.076-1.941-1.076V50.72c1.18,0.025,2.36,0.048,3.536,0.048
			c2.149,0,4.327-0.023,6.449-0.048l0.158,2.591h-0.551c-0.315-1.662-0.759-1.808-3.46-1.808h-1.939v4.618h2.175
			c1.312,0,1.89-0.023,1.89-1.71h0.681c-0.029,0.636-0.054,1.294-0.054,1.956c0,0.659,0.025,1.341,0.054,2.028h-0.681
			c0-1.347-0.343-1.492-1.89-1.492h-2.175v3.568c0,1.049,0.628,1.441,2.805,1.441c2.647,0,2.83-0.318,3.852-1.929h0.655
			L252.77,62.692z"/>
		<path class="st0" d="M255.89,59.738h0.603c0.524,1.709,1.337,2.613,3.25,2.613c2.019,0,2.492-1.269,2.492-2.027
			c0-1.003-0.604-1.639-2.36-2.494c-2.884-1.393-3.644-2.322-3.644-4.228c0-1.66,1.546-3.176,3.827-3.176
			c0.996,0,2.228,0.22,3.092,0.245l0.237,2.394h-0.55c-0.288-0.977-0.864-2.005-2.595-2.005c-1.364,0-2.281,0.832-2.281,1.957
			c0,1.173,0.394,1.637,2.909,2.785c2.778,1.271,3.303,2.297,3.303,3.837c0,1.955-1.939,3.348-4.64,3.348
			c-1.206,0-2.255-0.22-3.252-0.66L255.89,59.738z"/>
		<path class="st0" d="M267.527,59.738h0.603c0.524,1.709,1.337,2.613,3.249,2.613c2.02,0,2.49-1.269,2.49-2.027
			c0-1.003-0.602-1.639-2.358-2.494c-2.883-1.393-3.643-2.322-3.643-4.228c0-1.66,1.546-3.176,3.826-3.176
			c0.997,0,2.227,0.22,3.091,0.245l0.238,2.394h-0.548c-0.291-0.977-0.866-2.005-2.599-2.005c-1.363,0-2.279,0.832-2.279,1.957
			c0,1.173,0.394,1.637,2.911,2.785c2.776,1.271,3.302,2.297,3.302,3.837c0,1.955-1.941,3.348-4.64,3.348
			c-1.205,0-2.253-0.22-3.25-0.66L267.527,59.738z"/>
	</g>
</g>
</svg>